<?xml version="1.0" encoding="UTF-8" standalone="no"?>
<svg width="456" height="456" viewBox="0 0 456 456" version="1.1" xmlns="http://www.w3.org/2000/svg">
    <path d="M268.15,106.1 L248.35,136.15 C245.52,140.45 240.56,141.5 236.26,138.67 C232.5,136.11 231.35,131.15 233.38,127.08 L242.12,112.2 C231.53,112.02 221.06,113.39 210.92,116.44 C143.44,133.92 103.78,202.91 121.26,270.4 C138.74,337.88 207.73,377.54 275.21,360.06 C342.7,342.58 382.36,273.59 364.88,206.1 C353.56,162.13 325.07,127.56 286.71,111.77 C280.71,109.07 274.44,107.21 268.15,106.1 Z M212.7,193.5 C229.3,193.5 242.69,206.89 242.69,223.49 C242.69,240.09 229.3,253.49 212.7,253.49 C196.1,253.49 182.7,240.09 182.7,223.49 C182.7,206.89 196.1,193.5 212.7,193.5 Z M274.07,194.8 C288.07,194.8 299.37,206.1 299.37,220.1 C299.37,234.1 288.07,245.4 274.07,245.4 C260.07,245.4 248.77,234.1 248.77,220.1 C248.77,206.1 260.07,194.8 274.07,194.8 Z M244.36,265.95 C257.12,265.95 267.55,276.38 267.55,289.14 C267.55,301.9 257.12,312.33 244.36,312.33 C231.6,312.33 221.17,301.9 221.17,289.14 C221.17,276.38 231.6,265.95 244.36,265.95 Z" fill="#FFFFFF"/>
</svg> 