<?xml version="1.0" encoding="UTF-8" standalone="no"?>
<svg width="168" height="208" viewBox="0 0 168 208" version="1.1" xmlns="http://www.w3.org/2000/svg">
    <path d="M69.32,54.67 C72.26,51.72 76.93,51.72 79.88,54.67 C82.83,57.61 82.83,62.29 79.88,65.23 C76.93,68.18 72.26,68.18 69.32,65.23 C66.37,62.29 66.37,57.61 69.32,54.67 Z" fill="#512BD4"/>
    <path d="M81.09,47.78 C84.03,44.83 88.7,44.83 91.65,47.78 C94.6,50.73 94.6,55.4 91.65,58.35 C88.7,61.29 84.03,61.29 81.09,58.35 C78.14,55.4 78.14,50.73 81.09,47.78 Z" fill="#512BD4"/>
    <path d="M81.09,71.26 C84.03,68.32 88.7,68.32 91.65,71.26 C94.6,74.21 94.6,78.88 91.65,81.83 C88.7,84.78 84.03,84.78 81.09,81.83 C78.14,78.88 78.14,74.21 81.09,71.26 Z" fill="#512BD4"/>
    <path d="M92.86,64.38 C95.81,61.44 100.48,61.44 103.42,64.38 C106.37,67.33 106.37,72 103.42,74.95 C100.48,77.9 95.81,77.9 92.86,74.95 C89.91,72 89.91,67.33 92.86,64.38 Z" fill="#512BD4"/>
    <path d="M103.99,49.68 C106.94,46.74 111.61,46.74 114.55,49.68 C117.5,52.63 117.5,57.3 114.55,60.25 C111.61,63.2 106.94,63.2 103.99,60.25 C101.04,57.3 101.04,52.63 103.99,49.68 Z" fill="#512BD4"/>
    <path d="M69.32,94.95 C72.26,92.01 76.93,92.01 79.88,94.95 C82.83,97.9 82.83,102.57 79.88,105.52 C76.93,108.47 72.26,108.47 69.32,105.52 C66.37,102.57 66.37,97.9 69.32,94.95 Z" fill="#512BD4"/>
    <path d="M81.09,88.07 C84.03,85.12 88.7,85.12 91.65,88.07 C94.6,91.01 94.6,95.69 91.65,98.63 C88.7,101.58 84.03,101.58 81.09,98.63 C78.14,95.69 78.14,91.01 81.09,88.07 Z" fill="#512BD4"/>
    <path d="M92.86,81.19 C95.81,78.24 100.48,78.24 103.42,81.19 C106.37,84.14 106.37,88.81 103.42,91.76 C100.48,94.7 95.81,94.7 92.86,91.76 C89.91,88.81 89.91,84.14 92.86,81.19 Z" fill="#512BD4"/>
    <path d="M103.99,72.92 C106.94,69.98 111.61,69.98 114.55,72.92 C117.5,75.87 117.5,80.54 114.55,83.49 C111.61,86.44 106.94,86.44 103.99,83.49 C101.04,80.54 101.04,75.87 103.99,72.92 Z" fill="#512BD4"/>
    <path d="M116.55,65.6 C119.5,62.66 124.17,62.66 127.12,65.6 C130.06,68.55 130.06,73.22 127.12,76.17 C124.17,79.12 119.5,79.12 116.55,76.17 C113.6,73.22 113.6,68.55 116.55,65.6 Z" fill="#512BD4"/>
    <path d="M123.53,36.69 C126.48,33.74 131.15,33.74 134.1,36.69 C137.04,39.64 137.04,44.31 134.1,47.26 C131.15,50.2 126.48,50.2 123.53,47.26 C120.59,44.31 120.59,39.64 123.53,36.69 Z" fill="#512BD4"/>
    <path d="M45.63,75.16 C48.57,72.22 53.24,72.22 56.19,75.16 C59.14,78.11 59.14,82.78 56.19,85.73 C53.24,88.68 48.57,88.68 45.63,85.73 C42.68,82.78 42.68,78.11 45.63,75.16 Z" fill="#512BD4"/>
    <path d="M57.39,68.28 C60.34,65.33 65.01,65.33 67.96,68.28 C70.91,71.23 70.91,75.9 67.96,78.85 C65.01,81.79 60.34,81.79 57.39,78.85 C54.44,75.9 54.44,71.23 57.39,68.28 Z" fill="#512BD4"/>
    <path d="M58.16,55.6 C61.11,52.65 65.78,52.65 68.73,55.6 C71.68,58.55 71.68,63.22 68.73,66.17 C65.78,69.11 61.11,69.11 58.16,66.17 C55.22,63.22 55.22,58.55 58.16,55.6 Z" fill="#512BD4"/>
    <path d="M46.55,48.57 C49.5,45.62 54.17,45.62 57.12,48.57 C60.06,51.52 60.06,56.19 57.12,59.14 C54.17,62.08 49.5,62.08 46.55,59.14 C43.6,56.19 43.6,51.52 46.55,48.57 Z" fill="#512BD4"/>
    <path d="M33.11,67.28 C36.06,64.33 40.73,64.33 43.68,67.28 C46.63,70.23 46.63,74.9 43.68,77.85 C40.73,80.79 36.06,80.79 33.11,77.85 C30.17,74.9 30.17,70.23 33.11,67.28 Z" fill="#512BD4"/>
    <path d="M33.14,36.69 C36.09,33.74 40.76,33.74 43.71,36.69 C46.65,39.64 46.65,44.31 43.71,47.26 C40.76,50.2 36.09,50.2 33.14,47.26 C30.19,44.31 30.19,39.64 33.14,36.69 Z" fill="#512BD4"/>
</svg> 